<?xml version="1.0" encoding="utf-8"?>
<!-- Generator: Adobe Illustrator 26.5.0, SVG Export Plug-In . SVG Version: 6.00 Build 0)  -->
<svg version="1.1" id="Layer_1" xmlns="http://www.w3.org/2000/svg" xmlns:xlink="http://www.w3.org/1999/xlink" x="0px" y="0px"
	 viewBox="0 0 122.9 92.9" style="enable-background:new 0 0 122.9 92.9;" xml:space="preserve">
<style type="text/css">
	.st0{fill:#FFFFFF;}
</style>
<path class="st0" d="M20.1,83.6l11.5-10.2c0.5-0.5,1.2-0.7,1.9-0.7h27.8c0.5,0,0.9-0.4,0.9-0.9c0,0,0,0,0,0v-5.8H68v5.8
	c0,3.7-3,6.7-6.7,6.7H34.6L19.3,92.1c-1.1,1.1-2.9,1.1-4.1,0c-0.5-0.5-0.8-1.2-0.8-2V78.4H6.7c-3.7,0-6.7-3-6.7-6.7V28.6
	c0-3.7,3-6.6,6.7-6.7h36.7v5.8H6.7c-0.5,0-0.9,0.4-0.9,0.9v43.1c0,0.2,0.1,0.5,0.3,0.7c0.2,0.2,0.4,0.3,0.7,0.3h10.6
	c1.6,0,2.9,1.3,2.9,2.9C20.2,75.5,20.2,83.6,20.1,83.6z M20.4,64.1l9.2-27.9h8.8l9.2,27.9h-7.3l-1.5-5.1h-9.6l-1.5,5.1L20.4,64.1z
	 M30.8,53.2h6.4L34,41.8L30.8,53.2z M76.6,13.4h8.7v-2.2c0-0.4,0.3-0.7,0.7-0.7l0,0h4.7c0.4,0,0.7,0.3,0.7,0.7c0,0,0,0,0,0v2.2h9.8
	c0.4,0,0.7,0.3,0.7,0.7c0,0,0,0,0,0v4.5c0,0.4-0.3,0.7-0.7,0.7l0,0h-1.6c-0.2,1.3-0.5,2.6-0.9,3.9v0.1c-0.5,1.4-1,2.8-1.7,4.1
	c-0.6,1.2-1.4,2.3-2.1,3.4c-0.7,1-1.4,1.9-2.2,2.8c1.1,1.4,2.4,2.6,3.7,3.8c1.6,1.4,3.3,2.6,5.1,3.7c0.3,0.2,0.4,0.6,0.2,0.9
	c0,0,0,0,0,0l-2.4,3.7c-0.2,0.3-0.6,0.4-0.9,0.2c0,0,0,0-0.1,0c-2-1.2-3.8-2.6-5.6-4.1l0,0c-1.4-1.3-2.8-2.6-4-4.1
	C87.3,38.9,86.2,40,85,41l0,0c-1.4,1.1-2.8,2.2-4.5,3.4c-0.3,0.2-0.7,0.2-1-0.1c0,0,0,0,0,0L77,40.5c-0.2-0.3-0.2-0.7,0.1-1
	c0,0,0,0,0,0c1.7-1.1,3-2.2,4.4-3.3c1.2-1,2.3-2,3.5-3.2c-1-1.4-1.9-2.9-2.8-4.5c-1-1.8-1.7-3.8-2.2-5.7c-0.1-0.4,0.1-0.7,0.5-0.8
	c0,0,0,0,0,0l4.3-1.2c0.4-0.1,0.7,0.1,0.8,0.5c0,0,0,0,0,0c0.7,2.6,1.8,5.1,3.4,7.4l1.3-1.7c0.5-0.8,1.1-1.6,1.5-2.5l0,0
	c0.5-0.9,0.9-1.9,1.2-2.9c0.3-0.8,0.5-1.6,0.7-2.4h-17c-0.4,0-0.7-0.3-0.7-0.7V14C76,13.6,76.3,13.3,76.6,13.4L76.6,13.4L76.6,13.4z
	 M103.6,70.2L88.3,56.5H61.5c-3.7,0-6.7-3-6.7-6.7V6.7c0-1.8,0.7-3.5,2-4.7l0.2-0.2C58.3,0.7,59.9,0,61.5,0h54.7
	c1.8,0,3.5,0.7,4.7,2l0.2,0.2c1.1,1.2,1.8,2.8,1.8,4.5v43.1c0,3.7-3,6.7-6.7,6.7h-7.7v11.6c0,1.6-1.3,2.9-2.9,2.8
	C104.8,71,104.1,70.7,103.6,70.2L103.6,70.2z M91.3,51.5l11.5,10.2v-8.1c0-1.6,1.3-2.9,2.9-2.9h10.6c0.2,0,0.5-0.1,0.7-0.3
	c0.2-0.2,0.3-0.4,0.3-0.7V6.7c0-0.2-0.1-0.4-0.2-0.6L116.8,6c-0.2-0.2-0.4-0.3-0.7-0.3H61.5c-0.2,0-0.4,0.1-0.5,0.3h-0.1
	c-0.2,0.2-0.3,0.4-0.3,0.7v43.2c0,0.5,0.4,0.9,0.9,0.9c0,0,0,0,0,0h27.8C90.1,50.8,90.7,51,91.3,51.5z"/>
</svg>
